<?xml version="1.0" encoding="UTF-8"?>
<svg version="1.1" xmlns="http://www.w3.org/2000/svg" width="512" height="512">
<path d="M0 0 C1.45628196 -0.00599279 2.91256076 -0.01280005 4.36883545 -0.02035522 C8.30720982 -0.03795041 12.24549715 -0.04270798 16.18390703 -0.0439868 C18.65115151 -0.04541314 21.11837421 -0.04969194 23.58561325 -0.05498123 C32.2123631 -0.07346317 40.83905133 -0.08165453 49.46582031 -0.08007812 C57.47514652 -0.07887864 65.48420242 -0.09994768 73.4934603 -0.13156545 C80.39485762 -0.15782734 87.29616724 -0.16844122 94.19761407 -0.16716731 C98.30828837 -0.16666039 102.41872246 -0.17219197 106.52934647 -0.19352341 C110.40206567 -0.21307274 114.27431972 -0.21291811 118.14705658 -0.19849014 C119.55701513 -0.19642112 120.96700409 -0.20098709 122.37691116 -0.21321106 C140.3413259 -0.3586961 154.15029426 4.68481368 167.22412109 16.93896484 C181.17034047 31.07301209 185.02718903 46.56458319 184.97802734 65.87646484 C184.98260128 67.46628031 184.9879104 69.05609382 184.99391174 70.64590454 C185.00279524 73.9624235 185.00047501 77.27870106 184.99047852 80.59521484 C184.97900177 84.81002609 184.99920443 89.02399783 185.02839565 93.23869896 C185.04689161 96.51790512 185.04643869 99.7969151 185.04075813 103.07616043 C185.04060651 104.62843629 185.04651653 106.18072684 185.05904961 107.73295212 C185.18955586 126.54243665 179.77624159 141.98807883 166.47412109 155.55615234 C154.82214599 166.81327647 139.73809823 171.6040493 123.8354454 171.35362911 C122.33919977 171.32439849 120.84299749 171.29287517 119.34684372 171.25926971 C115.29200823 171.17810734 111.23665086 171.16388805 107.18115234 171.13818359 C102.05199543 171.10267269 96.9255521 171.0479096 91.79785156 170.91699219 C70.53416281 169.42474207 70.53416281 169.42474207 51.7784729 177.28863525 C49.0538085 180.11829321 46.80465483 183.07670661 44.54443359 186.29052734 C43.05943359 187.28052734 43.05943359 187.28052734 41.54443359 188.29052734 C42.25728516 188.64244141 42.97013672 188.99435547 43.70458984 189.35693359 C54.14119936 194.73677403 60.09374226 200.31092931 64.54443359 211.29052734 C65.6112201 214.71058913 65.68334485 217.88782194 65.70556641 221.4609375 C65.71517395 222.70968658 65.72478149 223.95843567 65.73468018 225.24502563 C65.7395304 226.60654517 65.74380868 227.96806684 65.74755859 229.32958984 C65.75038597 230.01952404 65.75321335 230.70945824 65.7561264 231.42029953 C65.77110149 235.07577648 65.78033987 238.73121417 65.78466797 242.38671875 C65.79013142 246.13889649 65.81411869 249.89070746 65.84263992 253.64277077 C65.8613936 256.54781084 65.86647874 259.4527651 65.86800385 262.35786057 C65.87100536 263.73957689 65.87894793 265.12129262 65.89218903 266.50294876 C66.01043704 279.7971256 64.2898267 289.26652297 54.91552734 298.97802734 C45.77841413 307.4579468 35.6397756 308.45845719 23.66943359 308.35302734 C22.69490234 308.34851563 21.72037109 308.34400391 20.71630859 308.33935547 C18.32561926 308.3276364 15.9350592 308.31122954 13.54443359 308.29052734 C13.49617432 308.85610352 13.44791504 309.42167969 13.39819336 310.00439453 C11.47395746 329.96964776 0.9248362 346.77250621 -14.18212891 359.60693359 C-23.86642606 366.96085953 -34.03761414 371.50358233 -45.71728516 374.52880859 C-48.34768386 375.01873246 -48.34768386 375.01873246 -49.45556641 376.29052734 C-48.78912109 376.78939453 -48.12267578 377.28826172 -47.43603516 377.80224609 C-27.32786078 393.46693579 -15.26026403 415.07848544 -11.45556641 440.29052734 C-11.15937585 444.36455769 -11.10481999 448.42544293 -11.08447266 452.50927734 C-11.07544418 453.64780151 -11.06641571 454.78632568 -11.05711365 455.95935059 C-11.04268652 458.35275675 -11.03374332 460.74620167 -11.0300293 463.13964844 C-11.01809938 466.78046287 -10.96880747 470.41959901 -10.91845703 474.06005859 C-10.9089946 476.39728999 -10.9017587 478.73453169 -10.89697266 481.07177734 C-10.87744034 482.14810425 -10.85790802 483.22443115 -10.83778381 484.33337402 C-10.88758181 492.7568674 -13.06110554 499.20932584 -18.48291016 505.72802734 C-19.11326172 506.24365234 -19.74361328 506.75927734 -20.39306641 507.29052734 C-21.02083984 507.82677734 -21.64861328 508.36302734 -22.29541016 508.91552734 C-27.51427767 512.2374828 -32.75573035 512.58245422 -38.79196167 512.55795288 C-39.61632127 512.56248399 -40.44068087 512.56701511 -41.29002106 512.57168353 C-44.04431629 512.58431449 -46.79841344 512.58270801 -49.55273438 512.58105469 C-51.5307643 512.58704071 -53.50879189 512.59384642 -55.48681641 512.60140991 C-60.85460817 512.61906855 -66.22233617 512.62376521 -71.59015417 512.62504148 C-74.94480521 512.62646359 -78.29944005 512.63073431 -81.65408707 512.63603592 C-93.36022216 512.65453498 -105.06631171 512.66270659 -116.77246094 512.66113281 C-127.67996049 512.6599311 -138.58726226 512.6810397 -149.49471176 512.71262014 C-158.8638918 512.73877905 -168.23300723 512.74950028 -177.60222352 512.74822199 C-183.19606679 512.7477123 -188.78973424 512.75340012 -194.38354111 512.77457809 C-199.64492913 512.79395413 -204.90597345 512.79408913 -210.16737366 512.77954483 C-212.09586718 512.77745494 -214.02438218 512.78216837 -215.9528389 512.79426575 C-218.59069621 512.80973866 -221.22737138 512.80039697 -223.86520386 512.78500366 C-224.62377996 512.79529079 -225.38235607 512.80557791 -226.16391933 512.81617677 C-233.59794299 512.72066401 -240.19575136 509.55034239 -245.45556641 504.29052734 C-250.6861915 496.40754562 -251.61196019 489.95501923 -251.62353516 480.66943359 C-251.62852776 479.26491188 -251.62852776 479.26491188 -251.63362122 477.83201599 C-251.63867756 475.84919728 -251.64102994 473.86637008 -251.64086914 471.88354492 C-251.64303619 468.89470764 -251.66115161 465.90625156 -251.68017578 462.91748047 C-251.76873685 433.7154977 -245.17646974 408.13011037 -224.73291016 386.39599609 C-222.34035457 383.98934592 -219.91251157 381.63109089 -217.45556641 379.29052734 C-216.11881575 377.96062012 -214.78434137 376.62840351 -213.45556641 375.29052734 C-214.13619141 375.16677734 -214.81681641 375.04302734 -215.51806641 374.91552734 C-228.60377002 372.13133509 -240.36093047 366.03227393 -250.45556641 357.29052734 C-251.27798828 356.65888672 -252.10041016 356.02724609 -252.94775391 355.37646484 C-266.79641121 343.85748821 -273.28374455 326.47194929 -276.45556641 309.29052734 C-277.307677 309.27650879 -277.307677 309.27650879 -278.17700195 309.26220703 C-307.97835521 308.64768403 -307.97835521 308.64768403 -319.45556641 297.29052734 C-327.7595373 288.25630775 -327.92072002 277.53249886 -327.88916016 265.85302734 C-327.89373096 264.36287195 -327.89903918 262.87271866 -327.90504456 261.38256836 C-327.91393604 258.27269885 -327.91159745 255.1630867 -327.90161133 252.05322266 C-327.89011536 248.0890453 -327.91036207 244.12575796 -327.93952847 240.16169739 C-327.95796543 237.08852602 -327.95758341 234.01556515 -327.95189095 230.94235229 C-327.9517387 229.48166656 -327.95770178 228.02096567 -327.97018242 226.56033325 C-328.03013356 218.39701708 -327.756492 211.45519228 -323.45556641 204.29052734 C-322.97474609 203.48099609 -322.49392578 202.67146484 -321.99853516 201.83740234 C-321.55123047 201.24443359 -321.10392578 200.65146484 -320.64306641 200.04052734 C-320.20349609 199.43724609 -319.76392578 198.83396484 -319.31103516 198.21240234 C-317.45556641 196.29052734 -317.45556641 196.29052734 -313.97119141 194.37255859 C-308.56732019 190.60969448 -308.24157427 184.30968784 -307.01806641 178.22802734 C-297.27711618 135.18867699 -271.79850912 98.93897469 -234.45556641 75.29052734 C-233.81635254 74.88560059 -233.17713867 74.48067383 -232.51855469 74.06347656 C-218.58189583 65.39821498 -203.32820782 59.67042254 -187.51806641 55.41552734 C-186.81061279 55.22442383 -186.10315918 55.03332031 -185.37426758 54.83642578 C-173.47375451 51.83508343 -161.55374496 50.98124563 -149.31884766 50.98974609 C-147.90463643 50.9858398 -146.49042633 50.98150133 -145.07621765 50.97676086 C-142.13239722 50.96936799 -139.18869683 50.96953782 -136.24487305 50.97485352 C-133.26913312 50.97947889 -130.29380241 50.97258038 -127.31811523 50.9543457 C-105.57382227 50.82229035 -85.43604224 52.11242011 -64.45556641 58.29052734 C-64.29701172 57.35853516 -64.13845703 56.42654297 -63.97509766 55.46630859 C-60.67915058 37.45696239 -54.10794129 21.13024673 -38.45556641 10.29052734 C-25.64062529 2.72615238 -14.91926093 -0.012289 0 0 Z " fill="#438DFE" transform="translate(327.45556640625,-0.29052734375)"/>
<path d="M0 0 C3.28592066 0.04234815 6.56980499 0.0409944 9.85595703 0.03417969 C21.98465617 0.07120885 33.40872877 0.8773991 45.25830078 3.54199219 C46.27400146 3.76387207 47.28970215 3.98575195 48.33618164 4.21435547 C51.04162508 4.84333053 53.62162421 5.66783796 56.25830078 6.54199219 C56.90250977 6.72084961 57.54671875 6.89970703 58.21044922 7.08398438 C70.61429342 10.60928746 70.61429342 10.60928746 73.26367188 15.33544922 C74.7255389 19.59759916 75.25312463 24.01582869 75.87890625 28.46191406 C77.65371123 38.19250509 84.4537261 45.82187145 91.25830078 52.54199219 C92.07041016 53.38697266 92.07041016 53.38697266 92.89892578 54.24902344 C101.16539953 62.16062331 112.4171981 65.82187439 123.25830078 68.54199219 C123.26764648 69.4444165 123.27699219 70.34684082 123.28662109 71.27661133 C123.33085918 74.65236797 123.39256942 78.02689505 123.46582031 81.40209961 C123.49389664 82.85771179 123.5151771 84.31347265 123.52929688 85.76928711 C123.41038497 96.89173489 123.41038497 96.89173489 128.25830078 106.54199219 C129.24830078 107.20199219 130.23830078 107.86199219 131.25830078 108.54199219 C131.63462774 111.20484983 131.81280297 113.64645358 131.86865234 116.32128906 C131.8963974 117.12481812 131.92414246 117.92834717 131.95272827 118.75622559 C132.03758204 121.42427458 132.09681101 124.09186026 132.14892578 126.76074219 C132.16739311 127.67316177 132.18586044 128.58558136 132.20488739 129.52565002 C132.29687373 134.36105621 132.36510903 139.19625068 132.41845703 144.03222656 C132.46732916 148.02707628 132.56456294 152.01614746 132.70556641 156.00878906 C132.87589793 160.83593797 132.96159147 165.65779357 132.98802948 170.48780823 C133.01177711 172.32227602 133.064468 174.15661886 133.14740753 175.98936462 C133.64406466 187.60655655 133.64406466 187.60655655 131.25830078 192.54199219 C127.1667867 196.85876335 121.81985077 199.24346749 116.4317894 201.56532669 C113.03994231 203.08946627 109.91583513 204.98054518 106.71923828 206.87792969 C105.53180876 207.55871475 104.34317675 208.23741101 103.15283203 208.91308594 C102.57355957 209.2429248 101.99428711 209.57276367 101.39746094 209.91259766 C100.81528809 210.24404785 100.23311523 210.57549805 99.63330078 210.91699219 C97.82653949 211.94727804 96.01995132 212.97785809 94.21408081 214.00970459 C92.52444662 214.97150318 90.82920178 215.92342449 89.13378906 216.875 C86.37404272 218.41824732 86.37404272 218.41824732 84.34765625 219.88867188 C78.72942483 223.81080054 72.19038947 223.0630085 65.63330078 223.04199219 C63.22443631 223.03432064 60.81543822 223.0440619 58.40673828 223.07324219 C57.34632324 223.06873047 56.2859082 223.06421875 55.19335938 223.05957031 C51.54279022 223.65959732 49.86578123 224.96546106 47.25830078 227.54199219 C46.7582764 229.83846675 46.7582764 229.83846675 47.25830078 232.16699219 C47.41298828 233.33101563 47.41298828 233.33101563 47.57080078 234.51855469 C48.15526746 236.9134022 48.15526746 236.9134022 51.25830078 238.54199219 C55.67933502 239.00106749 60.11041349 238.9987184 64.55224609 239.02246094 C66.72410977 239.04168948 68.89202882 239.10363541 71.06298828 239.16699219 C80.30472876 239.31225514 86.46081722 237.66235365 94.25830078 232.54199219 C96.50590535 231.28376219 98.76300257 230.04238387 101.02783203 228.81542969 C102.19589295 228.1709415 103.36320864 227.52510088 104.52978516 226.87792969 C106.31044925 225.89138215 108.09149503 224.90558472 109.87426758 223.92285156 C111.63517026 222.95204536 113.39402347 221.97752467 115.15283203 221.00292969 C116.18255127 220.43364746 117.21227051 219.86436523 118.27319336 219.27783203 C120.40200658 218.03992723 122.47905866 216.71119228 124.51489258 215.32568359 C127.25830078 213.54199219 127.25830078 213.54199219 129.25830078 213.54199219 C125.04612576 228.83883833 115.07613649 241.67350241 101.25830078 249.54199219 C92.05099223 254.08399038 83.93057473 256.64484687 73.55039978 256.69589233 C72.23998718 256.7044928 70.92957458 256.71309326 69.57945251 256.72195435 C68.14419596 256.72638852 66.70893897 256.73068698 65.27368164 256.73486328 C63.74858417 256.74277487 62.22348852 256.75104445 60.69839478 256.75964355 C55.70666257 256.78574261 50.7149225 256.80115956 45.72314453 256.81542969 C43.99767109 256.82079445 42.27219768 256.82617196 40.54672432 256.83156204 C33.363816 256.85317343 26.18090981 256.87190627 18.99797726 256.88318443 C8.74072277 256.89940175 -1.51615173 256.93254555 -11.77326304 256.98958528 C-19.00583479 257.02841997 -26.23830548 257.04783308 -33.47097868 257.053105 C-37.78071766 257.05674011 -42.09005025 257.06856356 -46.39967537 257.10120773 C-50.46037578 257.13152774 -54.52042891 257.13751627 -58.58121872 257.12582397 C-60.06053406 257.12560522 -61.5398816 257.1337435 -63.01909065 257.15147781 C-77.93008619 257.3203238 -89.58806339 253.27869673 -101.74169922 244.54199219 C-102.77294922 243.82011719 -103.80419922 243.09824219 -104.86669922 242.35449219 C-116.06155492 232.45759077 -123.83460314 217.07305735 -124.9139328 202.16267395 C-125.20500836 195.17222295 -125.16215581 188.17767965 -125.14013672 181.18261719 C-125.1421618 178.90639147 -125.14507684 176.63016639 -125.14883423 174.35394287 C-125.15324071 169.59657581 -125.14688302 164.83937847 -125.1328125 160.08203125 C-125.11576102 154.02591479 -125.12554721 147.97019849 -125.14352989 141.91409683 C-125.15444657 137.21593289 -125.15088481 132.51786147 -125.14314651 127.81969452 C-125.14116419 125.58888449 -125.14353345 123.35806569 -125.15058517 121.12726593 C-125.22320307 91.69274249 -119.09260143 63.02873166 -98.74169922 40.54199219 C-98.08041016 39.74019531 -97.41912109 38.93839844 -96.73779297 38.11230469 C-87.0676022 26.67904047 -74.98071579 18.33353289 -61.74169922 11.54199219 C-60.71431641 10.99800781 -59.68693359 10.45402344 -58.62841797 9.89355469 C-40.49668233 1.17083937 -19.8092271 -0.2682158 0 0 Z " fill="#E7ECFC" transform="translate(192.74169921875,101.4580078125)"/>
<path d="M0 0 C1.37484283 -0.00379475 2.74968182 -0.00930421 4.12451172 -0.01637268 C7.81661099 -0.03019043 11.50823712 -0.01925718 15.20030951 -0.00266147 C19.08600098 0.01131591 22.97166848 0.00471498 26.8573761 0.00120544 C33.37585975 -0.00148579 39.89415811 0.01188804 46.41259766 0.03515625 C53.926191 0.06179273 61.43947548 0.06349839 68.95309991 0.05176789 C76.21519552 0.04095564 83.47718049 0.04720197 90.73926735 0.06132317 C93.81518005 0.06704979 96.89101088 0.06702677 99.96692467 0.06225777 C103.59262762 0.05745359 107.21799611 0.06773034 110.84363556 0.08921242 C112.79296272 0.09734653 114.74233392 0.09096788 116.69166565 0.08401489 C130.14228037 0.19678655 140.84290785 3.92796727 150.92700195 13.00170898 C158.21785213 20.64821039 162.83484485 31.11981657 162.90063477 41.64038086 C162.91024231 42.88267456 162.91984985 44.12496826 162.92974854 45.40490723 C162.93459985 46.76008926 162.93887786 48.11527345 162.94262695 49.47045898 C162.94686802 50.50161583 162.94686802 50.50161583 162.95119476 51.55360413 C162.96617417 55.198419 162.97540886 58.8431945 162.97973633 62.48803711 C162.98518955 66.22208321 163.00915355 69.95575885 163.03770828 73.68968964 C163.05650488 76.58623232 163.06154941 79.48268925 163.0630722 82.37928772 C163.06606594 83.75376896 163.07398098 85.12824991 163.08725739 86.50267029 C163.22093813 101.41813792 160.88669751 113.49367767 150.66918945 124.79077148 C141.41968009 133.64245249 129.67561661 137.77166001 116.98168945 137.7253418 C115.8873056 137.7259536 115.8873056 137.7259536 114.77081299 137.72657776 C113.20163506 137.72677386 111.63245193 137.72279036 110.06329346 137.71497345 C107.57352372 137.70466431 105.08424816 137.71018624 102.59448242 137.72039795 C95.52098658 137.74823422 88.44777628 137.76085889 81.37426758 137.73168945 C77.03346666 137.71491749 72.69355665 137.72733468 68.35284424 137.75814056 C66.70713674 137.76422079 65.06134968 137.75943929 63.41571045 137.74326324 C51.92698753 137.41324604 51.92698753 137.41324604 42.21398926 142.92549133 C41.72740845 143.44564316 41.24082764 143.96579498 40.73950195 144.50170898 C39.63037039 145.49610478 38.51648724 146.48525346 37.39575195 147.46655273 C36.34034661 148.45389908 35.28828568 149.44483182 34.23950195 150.43920898 C33.10870878 151.49726772 31.97720144 152.55456373 30.8449707 153.61108398 C30.3092041 154.11188477 29.7734375 154.61268555 29.22143555 155.12866211 C26.76195806 157.40742675 24.23171133 159.6010815 21.6965332 161.79467773 C19.35391045 163.83804329 17.04676773 165.91851758 14.73950195 168.00170898 C11.56084839 170.86593623 8.38035626 173.72760723 5.17700195 176.56420898 C4.21600586 177.41692383 4.21600586 177.41692383 3.2355957 178.28686523 C1.73950195 179.50170898 1.73950195 179.50170898 0.73950195 179.50170898 C0.72491943 178.62434082 0.71033691 177.74697266 0.6953125 176.84301758 C0.63400515 173.56621577 0.55980862 170.29021955 0.47705078 167.01391602 C0.44393904 165.59996408 0.41586479 164.18588434 0.39306641 162.77172852 C0.3592642 160.73065075 0.30694231 158.6907297 0.2512207 156.65014648 C0.21194458 154.81202393 0.21194458 154.81202393 0.171875 152.93676758 C-0.41411085 148.28130689 -2.13799808 144.98967406 -4.94018555 141.27514648 C-8.13339922 138.8345421 -11.55421488 138.07198191 -15.38549805 137.12670898 C-27.57061883 133.79927338 -38.01577158 127.98281544 -44.86206055 116.91186523 C-48.29577451 110.23519919 -50.49937553 104.16235116 -50.56689453 96.58520508 C-50.57521805 95.92085449 -50.58354156 95.25650391 -50.59211731 94.57202148 C-50.6160819 92.38966893 -50.62497481 90.20761643 -50.6315918 88.02514648 C-50.64057204 86.49305134 -50.64969411 84.96095702 -50.65895081 83.42886353 C-50.67540922 80.21956258 -50.68313451 77.0103655 -50.68603516 73.80102539 C-50.69140004 69.71926137 -50.72901369 65.63849588 -50.77477932 61.55701256 C-50.80475811 58.3910887 -50.81176326 55.2253986 -50.81276131 52.05934525 C-50.81692648 50.55644813 -50.82920913 49.05354788 -50.85027885 47.55079269 C-51.01315138 34.92421669 -48.62134061 24.45364703 -40.32299805 14.59936523 C-28.8767931 2.95805453 -15.94701072 -0.12275046 0 0 Z " fill="#E3EAFC" transform="translate(332.260498046875,16.498291015625)"/>
<path d="M0 0 C1.87304054 -0.0129007 1.87304054 -0.0129007 3.78392029 -0.02606201 C5.15510517 -0.03049644 6.5262905 -0.03479487 7.8974762 -0.03897095 C9.3518391 -0.04688107 10.80620009 -0.05515057 12.26055908 -0.06375122 C17.02566174 -0.08987514 21.79077273 -0.10527336 26.55592346 -0.11953735 C28.20305447 -0.12490177 29.85018544 -0.13027929 31.49731636 -0.13566971 C38.35591975 -0.15728799 45.21452088 -0.17601936 52.07314968 -0.1872921 C61.86505293 -0.20349758 71.65655734 -0.23660439 81.44831032 -0.29369295 C88.35306704 -0.33256037 95.25771787 -0.35194478 102.16258103 -0.35721266 C106.27619665 -0.3608444 110.38938598 -0.37263013 114.502882 -0.4053154 C118.38136861 -0.43569225 122.25917762 -0.4416044 126.13775826 -0.42993164 C127.5489265 -0.42971332 128.96012895 -0.43781385 130.3711853 -0.45558548 C146.68827814 -0.64964045 161.0544121 4.22715679 173.37232971 15.21640015 C185.06147138 27.75054 188.21002876 42.46102723 188.05982971 59.09140015 C188.07143127 60.37208374 188.08303284 61.65276733 188.09498596 62.97225952 C188.04468068 79.43047185 183.71118803 93.80194842 172.18092346 105.89608765 C158.81877093 117.98266693 144.45884926 120.45890636 127.07814026 120.44442749 C125.62979287 120.45042387 124.18144864 120.45723194 122.73310852 120.46478271 C118.82591027 120.48233582 114.9187998 120.48713351 111.01156592 120.48841429 C108.56341453 120.48984239 106.11528499 120.49412436 103.66713905 120.49940872 C95.1063713 120.51787276 86.54566555 120.52608379 77.98487854 120.52450562 C70.03683809 120.5233048 62.08906944 120.54440462 54.14109772 120.57599294 C47.28978135 120.60224102 40.43855331 120.61286937 33.58718711 120.6115948 C29.50731399 120.61108772 25.42768283 120.61662901 21.34786034 120.6379509 C17.50712664 120.65747836 13.6668622 120.65736018 9.82611084 120.64291763 C8.42701841 120.64084635 7.02789544 120.64542857 5.62885475 120.65763855 C-11.14731985 120.79441914 -24.71128088 116.09101071 -36.95579529 104.60702515 C-48.97807034 92.1070438 -51.51957554 79.11810923 -51.6103363 62.31625366 C-51.62179542 60.8454522 -51.64215008 59.3746903 -51.67185974 57.90414429 C-52.01628004 40.80050144 -48.02442495 27.06406983 -36.00267029 14.34140015 C-25.85314016 4.70882402 -13.93402291 0.0718174 0 0 Z " fill="#C5D7FB" transform="translate(128.31517028808594,178.84609985351563)"/>
<path d="M0 0 C0.0093457 0.64437012 0.01869141 1.28874023 0.02832031 1.95263672 C0.08265044 4.92747767 0.16616979 7.90084977 0.25 10.875 C0.26417969 11.88820313 0.27835937 12.90140625 0.29296875 13.9453125 C0.62564767 24.32489493 3.67252342 33.42827421 11 41 C18.02080107 46.84183636 26.209886 50.7092237 35.4765625 50.3515625 C44.64183387 49.07466711 53.75626501 46.35254935 59.64453125 38.92578125 C65.95376868 29.88407603 67.46992281 22.99730809 67.6875 12.0625 C67.72166016 10.90169922 67.75582031 9.74089844 67.79101562 8.54492188 C67.87306285 5.69671118 67.94235536 2.84879161 68 0 C74.40313976 0.41741779 80.03410129 1.31300175 86 3.6875 C86.68860107 3.9558667 87.37720215 4.2242334 88.08666992 4.50073242 C93.7778758 6.78455826 98.98660032 9.44398395 104 13 C104.87914062 13.62261719 105.75828125 14.24523437 106.6640625 14.88671875 C124.32760326 28.34583924 133.94588254 47.24619931 137 69 C137.56810985 75.61875115 137.57953666 82.243466 137.52148438 88.88208008 C137.49968748 91.85512727 137.52159578 94.82584549 137.546875 97.79882812 C137.54423711 99.70573445 137.53912334 101.61263935 137.53125 103.51953125 C137.53934692 104.39970413 137.54744385 105.27987701 137.55578613 106.1867218 C137.49316145 110.27160694 137.32148829 112.47222339 135.15429688 116.0300293 C131.29117651 119.56261296 127.28570534 119.14840426 122.33912659 119.14717102 C121.15732666 119.15268605 121.15732666 119.15268605 119.95165199 119.1583125 C117.30312928 119.16935409 114.6546458 119.17319393 112.00610352 119.17700195 C110.11069616 119.18326607 108.21529003 119.18991282 106.31988525 119.19691467 C101.16500432 119.21432507 96.01013266 119.22487581 90.85522962 119.2331202 C87.63681645 119.2382686 84.41840617 119.24434429 81.19999504 119.25063133 C71.1363742 119.26968058 61.0727607 119.28391422 51.00912529 119.2922433 C39.38035535 119.30202611 27.75177523 119.32837398 16.12307221 119.36874419 C7.1412809 119.39885926 -1.84045584 119.41370765 -10.82229668 119.41702431 C-16.19027089 119.41937939 -21.55804225 119.42839964 -26.92596245 119.45348549 C-31.9730646 119.47669169 -37.01982924 119.48102959 -42.06697083 119.47072411 C-43.92135806 119.47022687 -45.77576149 119.47660226 -47.63009834 119.49028015 C-50.15785559 119.50788534 -52.68438643 119.50094995 -55.21214294 119.48774719 C-55.94939824 119.49871644 -56.68665354 119.50968568 -57.4462499 119.52098733 C-60.89351097 119.47738449 -62.67612856 119.25456705 -65.42424107 117.0945158 C-67.64202917 114.14660789 -68.12797549 112.5221254 -68.16113281 108.89599609 C-68.17074036 108.04685638 -68.1803479 107.19771667 -68.19024658 106.32284546 C-68.19449646 105.39904083 -68.19874634 104.47523621 -68.203125 103.5234375 C-68.20882507 102.56539215 -68.21452515 101.6073468 -68.22039795 100.62026978 C-68.2298653 98.58084215 -68.23638878 96.5413991 -68.24023438 94.50195312 C-68.24980978 91.43590792 -68.28076002 88.37057145 -68.3125 85.3046875 C-68.39118529 71.1370792 -68.38625903 56.42026625 -61.3125 43.6875 C-60.96509766 43.03072266 -60.61769531 42.37394531 -60.25976562 41.69726562 C-50.38528391 23.49619393 -35.18535405 8.8630818 -15.04296875 2.73828125 C-10.00246693 1.31256869 -5.26954923 0 0 0 Z " fill="#E7ECFC" transform="translate(162,376)"/>
<path d="M0 0 C1.87304054 -0.0129007 1.87304054 -0.0129007 3.78392029 -0.02606201 C5.15510517 -0.03049644 6.5262905 -0.03479487 7.8974762 -0.03897095 C9.3518391 -0.04688107 10.80620009 -0.05515057 12.26055908 -0.06375122 C17.02566174 -0.08987514 21.79077273 -0.10527336 26.55592346 -0.11953735 C28.20305447 -0.12490177 29.85018544 -0.13027929 31.49731636 -0.13566971 C38.35591975 -0.15728799 45.21452088 -0.17601936 52.07314968 -0.1872921 C61.86505293 -0.20349758 71.65655734 -0.23660439 81.44831032 -0.29369295 C88.35306704 -0.33256037 95.25771787 -0.35194478 102.16258103 -0.35721266 C106.27619665 -0.3608444 110.38938598 -0.37263013 114.502882 -0.4053154 C118.38136861 -0.43569225 122.25917762 -0.4416044 126.13775826 -0.42993164 C127.5489265 -0.42971332 128.96012895 -0.43781385 130.3711853 -0.45558548 C146.68827814 -0.64964045 161.0544121 4.22715679 173.37232971 15.21640015 C185.06147138 27.75054 188.21002876 42.46102723 188.05982971 59.09140015 C188.07143127 60.37208374 188.08303284 61.65276733 188.09498596 62.97225952 C188.04468068 79.43047185 183.71118803 93.80194842 172.18092346 105.89608765 C158.81877093 117.98266693 144.45884926 120.45890636 127.07814026 120.44442749 C125.62979287 120.45042387 124.18144864 120.45723194 122.73310852 120.46478271 C118.82591027 120.48233582 114.9187998 120.48713351 111.01156592 120.48841429 C108.56341453 120.48984239 106.11528499 120.49412436 103.66713905 120.49940872 C95.1063713 120.51787276 86.54566555 120.52608379 77.98487854 120.52450562 C70.03683809 120.5233048 62.08906944 120.54440462 54.14109772 120.57599294 C47.28978135 120.60224102 40.43855331 120.61286937 33.58718711 120.6115948 C29.50731399 120.61108772 25.42768283 120.61662901 21.34786034 120.6379509 C17.50712664 120.65747836 13.6668622 120.65736018 9.82611084 120.64291763 C8.42701841 120.64084635 7.02789544 120.64542857 5.62885475 120.65763855 C-11.14731985 120.79441914 -24.71128088 116.09101071 -36.95579529 104.60702515 C-48.97807034 92.1070438 -51.51957554 79.11810923 -51.6103363 62.31625366 C-51.62179542 60.8454522 -51.64215008 59.3746903 -51.67185974 57.90414429 C-52.01628004 40.80050144 -48.02442495 27.06406983 -36.00267029 14.34140015 C-25.85314016 4.70882402 -13.93402291 0.0718174 0 0 Z M-28.06517029 31.3921814 C-34.03001042 39.92362341 -34.68807637 47.54657413 -34.68577576 57.72909546 C-34.69013115 59.88453289 -34.72645107 62.03788895 -34.76438904 64.19296265 C-34.86606308 76.36746131 -32.49469134 84.89644431 -23.95970154 93.8843689 C-16.83005509 100.00301673 -8.68553567 103.26343057 0.62782288 103.30107117 C1.84444611 103.30822647 3.06106934 103.31538177 4.31455994 103.32275391 C5.65998815 103.32559402 7.00541663 103.32830576 8.35084534 103.3309021 C9.77037216 103.33717006 11.18989736 103.34381715 12.60942078 103.35081482 C17.2699622 103.37182716 21.93050383 103.3822181 26.59107971 103.3921814 C28.19926978 103.39623073 29.80745969 103.4003477 31.41564941 103.40453148 C38.97619069 103.42358101 46.53672224 103.43780964 54.09728289 103.44614345 C62.80323585 103.45589977 71.50893347 103.48217809 80.21479654 103.52264434 C86.95641234 103.55289638 93.69795535 103.56762111 100.43963766 103.57092446 C104.45978226 103.5732656 108.47965403 103.58210233 112.49972534 103.60738564 C116.28864875 103.6308296 120.0771229 103.63483493 123.86610031 103.62462425 C125.90106329 103.62390024 127.9360043 103.64287833 129.97087097 103.66268921 C142.20195563 103.59415172 152.85192438 101.02185669 161.68482971 92.15390015 C169.88134707 82.48344764 171.1981315 72.05830997 171.12232971 59.71640015 C171.14231018 58.56591187 171.16229065 57.41542358 171.18287659 56.23007202 C171.1761919 44.43159767 168.09061049 34.65915762 159.68482971 26.15390015 C149.76125812 17.86309171 139.8710564 16.7033899 127.26759338 16.73397827 C125.8276199 16.72662623 124.38765229 16.71803673 122.94769287 16.70831299 C119.05906158 16.68620597 115.17064288 16.68316089 111.28195739 16.6850605 C108.0243527 16.68518072 104.76679221 16.67659562 101.50919992 16.66828299 C93.81698039 16.64908731 86.12486936 16.64615085 78.43263245 16.65292358 C70.52371385 16.65955957 62.61526219 16.63670925 54.70643824 16.59960985 C47.89251037 16.56881813 41.07873197 16.5575631 34.264736 16.56144667 C30.20551388 16.56350464 26.14665521 16.55818367 22.08749962 16.53355408 C18.26638175 16.51113224 14.4460178 16.51329087 10.6248951 16.5334816 C9.23183469 16.53686477 7.83872197 16.53192023 6.44573212 16.51749802 C-7.5802403 16.38243342 -19.2279181 20.08917804 -28.06517029 31.3921814 Z " fill="#448EFE" transform="translate(128.31517028808594,178.84609985351563)"/>
<path d="M0 0 C1.14836334 -0.0033284 2.29672668 -0.0066568 3.47988892 -0.01008606 C5.90895184 -0.01513825 8.33802167 -0.01749491 10.76708984 -0.01733398 C14.42948326 -0.01950336 18.09156673 -0.03763023 21.75390625 -0.05664062 C37.22873243 -0.09465875 52.48958547 0.07175532 67.5390625 4.10546875 C68.18883057 4.27731689 68.83859863 4.44916504 69.50805664 4.6262207 C71.37650422 5.12560115 73.2392433 5.64619829 75.1015625 6.16796875 C76.679375 6.60882813 76.679375 6.60882813 78.2890625 7.05859375 C84.9110625 8.97746875 84.9110625 8.97746875 86.1015625 10.16796875 C86.18788124 11.51064288 86.20862723 12.85771197 86.19921875 14.203125 C86.19599609 15.01201172 86.19277344 15.82089844 86.18945312 16.65429688 C86.18107422 17.50443359 86.17269531 18.35457031 86.1640625 19.23046875 C86.15955078 20.08447266 86.15503906 20.93847656 86.15039062 21.81835938 C86.13856623 23.93492538 86.12063019 26.0514556 86.1015625 28.16796875 C85.46758545 27.97871826 84.8336084 27.78946777 84.18041992 27.59448242 C82.50440929 27.09418883 80.82838125 26.59395355 79.15234375 26.09375 C77.06206673 25.45944058 74.97626943 24.81023246 72.89453125 24.1484375 C59.19998991 19.81102049 46.19101747 18.0371973 31.84765625 17.9296875 C30.78909927 17.92161575 29.7305423 17.91354401 28.63990784 17.90522766 C26.40359084 17.89146726 24.16725356 17.88070958 21.9309082 17.87280273 C19.69646827 17.86138366 17.46205337 17.84109592 15.2277832 17.8112793 C-25.30927936 17.27255079 -60.19705846 26.87383808 -90.015625 55.2890625 C-107.49071965 72.44270892 -120.32035094 96.01398405 -124.8984375 120.16796875 C-126.10790039 120.19769775 -126.10790039 120.19769775 -127.34179688 120.22802734 C-131.02764801 120.3238256 -134.71297457 120.43328235 -138.3984375 120.54296875 C-139.666875 120.57390625 -140.9353125 120.60484375 -142.2421875 120.63671875 C-148.75756645 120.84032434 -154.66114625 121.23062829 -160.8984375 123.16796875 C-158.32678745 101.44328324 -150.82276032 81.07742419 -139.8984375 62.16796875 C-139.5684375 62.16796875 -139.2384375 62.16796875 -138.8984375 62.16796875 C-138.78886719 62.79445312 -138.67929688 63.4209375 -138.56640625 64.06640625 C-138.40785156 64.88367188 -138.24929687 65.7009375 -138.0859375 66.54296875 C-137.93511719 67.35507813 -137.78429687 68.1671875 -137.62890625 69.00390625 C-137.02298808 71.52617516 -137.02298808 71.52617516 -133.8984375 73.16796875 C-130.983512 73.75178835 -130.983512 73.75178835 -127.8984375 73.16796875 C-124.07984961 69.8058841 -121.27706335 65.98679338 -118.4609375 61.79296875 C-97.0021781 30.93519036 -63.1664889 9.20855541 -26.2109375 2.35546875 C-23.77697512 1.9384347 -21.33949386 1.5412436 -18.8984375 1.16796875 C-17.91560791 0.99523437 -16.93277832 0.8225 -15.92016602 0.64453125 C-10.63774822 -0.10156805 -5.32455013 0.00542745 0 0 Z " fill="#A2C1F7" transform="translate(178.8984375,67.83203125)"/>
<path d="M0 0 C4.03566197 2.57595445 6.76937005 5.53874011 8.9375 9.875 C9.04412227 11.81389426 9.08634372 13.75645738 9.09863281 15.69824219 C9.10824036 16.9200116 9.1178479 18.14178101 9.12774658 19.40057373 C9.13259547 20.74100559 9.13687408 22.08143962 9.140625 23.421875 C9.14637795 24.7946981 9.15213566 26.16752118 9.15789795 27.54034424 C9.16840994 30.42208226 9.17425073 33.30379238 9.17773438 36.18554688 C9.18320768 39.86867646 9.20720941 43.55143421 9.23570633 47.23444748 C9.25438438 50.07241877 9.25954112 52.91030161 9.26107025 55.74832916 C9.26555074 57.7634764 9.28417612 59.77857621 9.30303955 61.79364014 C9.30003845 63.02801819 9.29703735 64.26239624 9.29394531 65.53417969 C9.29941376 67.15728058 9.29941376 67.15728058 9.30499268 68.81317139 C8.72914576 73.61093932 6.81828812 77.65920252 3 80.6875 C-1.13772158 83.64301541 -4.03952237 84.00318889 -9.046875 83.97265625 C-9.98144531 83.96943359 -10.91601562 83.96621094 -11.87890625 83.96289062 C-12.84699219 83.95451172 -13.81507813 83.94613281 -14.8125 83.9375 C-15.79605469 83.93298828 -16.77960938 83.92847656 -17.79296875 83.92382812 C-20.21620791 83.91206483 -22.63932273 83.89562684 -25.0625 83.875 C-25.22482845 73.67854393 -25.34913866 63.48239616 -25.4251852 53.2849102 C-25.461688 48.54950129 -25.51118264 43.81497757 -25.59057617 39.08007812 C-25.66674401 34.50884456 -25.70851251 29.93846125 -25.7266407 25.366642 C-25.73955574 23.62424459 -25.76477739 21.88189274 -25.8026104 20.13985825 C-26.08614367 6.54122729 -26.08614367 6.54122729 -23.58059692 2.46284485 C-17.29253439 -3.20824563 -7.67007237 -2.78145481 0 0 Z " fill="#7FACF9" transform="translate(366.0625,206.125)"/>
<path d="M0 0 C1.49015583 -0.00649584 2.98030235 -0.01555875 4.47042847 -0.0269928 C8.51198675 -0.05005875 12.55259981 -0.03536463 16.59412766 -0.01252341 C20.82521649 0.00640156 25.05624224 -0.00476715 29.28735352 -0.01142883 C36.39256797 -0.01776814 43.49740401 0.0004936 50.60253906 0.03320312 C58.81488449 0.07069743 67.02651305 0.06891876 75.23889637 0.04616195 C83.14176605 0.02520714 91.04437101 0.03249011 98.94723511 0.0524807 C102.30923023 0.06046349 105.67100123 0.05847917 109.0329895 0.04845619 C112.99281621 0.03789903 116.95180834 0.05204789 120.91150284 0.08519936 C122.36391048 0.09340202 123.81639467 0.09312777 125.26879501 0.08372116 C127.2526846 0.0722843 129.23668303 0.09473339 131.22045898 0.11885071 C132.8851548 0.12362663 132.8851548 0.12362663 134.58348083 0.12849903 C138.54840004 0.97076119 140.06310402 2.63089882 142.55859375 5.76049805 C143.12109375 9.32299805 143.12109375 9.32299805 142.55859375 12.76049805 C140.6915087 15.12547244 139.23797944 16.4208052 136.55859375 17.76049805 C134.59350262 17.86293837 132.62489479 17.90000919 130.65715027 17.90766907 C129.39950363 17.91482437 128.14185699 17.92197968 126.84609985 17.92935181 C125.44451929 17.9321922 124.04293846 17.93490391 122.64135742 17.9375 C121.17135965 17.94376363 119.70136346 17.95041034 118.23136902 17.95741272 C114.23128482 17.97483135 110.23121258 17.98537675 106.23109984 17.99361825 C103.73280806 17.99876643 101.23452 18.00484223 98.73623085 18.01112938 C90.92207748 18.0301836 83.10793357 18.04441442 75.29376143 18.05274135 C66.26906999 18.0625166 57.24462363 18.08884253 48.22001857 18.12924224 C41.24755651 18.15938582 34.27516479 18.17420853 27.30263883 18.17752236 C23.13681601 18.17987481 18.97125495 18.1888602 14.80550194 18.21398354 C10.88612743 18.23723885 6.9671875 18.24150798 3.04776192 18.23122215 C1.60983206 18.23072606 0.171881 18.23706821 -1.26598358 18.2507782 C-3.23024695 18.26845831 -5.19469845 18.2590183 -7.15901184 18.24824524 C-8.25795682 18.25063359 -9.3569018 18.25302195 -10.48914814 18.25548267 C-14.17057319 17.63824369 -15.82375949 16.38149905 -18.44140625 13.76049805 C-19.56640625 10.38549805 -19.56640625 10.38549805 -19.44140625 6.76049805 C-15.32352251 -1.39467321 -8.21354051 -0.08408223 0 0 Z " fill="#438DFE" transform="translate(326.44140625,76.239501953125)"/>
<path d="M0 0 C-0.83660156 0.37769531 -1.67320312 0.75539063 -2.53515625 1.14453125 C-15.52008565 7.28469167 -26.67008718 15.40236224 -37.046875 25.3203125 C-39 27 -39 27 -42 28 C-42.69727918 29.31758262 -43.36081663 30.65327551 -44 32 C-45.51782227 33.63842773 -45.51782227 33.63842773 -47.25390625 35.24609375 C-50.99011598 38.87983564 -53.98051873 42.78258071 -56.9375 47.0625 C-57.45473633 47.80781982 -57.97197266 48.55313965 -58.50488281 49.32104492 C-69.77401819 65.75315535 -78.28332788 83.32200307 -82 103 C-82.6519515 106.00332324 -83.32383184 109.00204459 -84 112 C-85.20946289 112.029729 -85.20946289 112.029729 -86.44335938 112.06005859 C-90.12921051 112.15585685 -93.81453707 112.2653136 -97.5 112.375 C-98.7684375 112.4059375 -100.036875 112.436875 -101.34375 112.46875 C-107.85912895 112.67235559 -113.76270875 113.06265954 -120 115 C-117.42834995 93.27531449 -109.92432282 72.90945544 -99 54 C-98.67 54 -98.34 54 -98 54 C-97.89042969 54.62648437 -97.78085938 55.25296875 -97.66796875 55.8984375 C-97.50941406 56.71570313 -97.35085937 57.53296875 -97.1875 58.375 C-97.03667969 59.18710938 -96.88585937 59.99921875 -96.73046875 60.8359375 C-96.12455058 63.35820641 -96.12455058 63.35820641 -93 65 C-90.0850745 65.5838196 -90.0850745 65.5838196 -87 65 C-83.18141211 61.63791535 -80.37862585 57.81882463 -77.5625 53.625 C-61.08096322 29.92448684 -38.33008037 13.26077437 -12 2 C-11.27280762 1.68530762 -10.54561523 1.37061523 -9.79638672 1.04638672 C-6.06666523 -0.476705 -3.84146211 -1.24586528 0 0 Z " fill="#FBFCFE" transform="translate(138,76)"/>
<path d="M0 0 C5.88522412 4.77689566 10.13365262 10.04727238 11.30078125 17.671875 C11.69106922 26.41227138 9.83766331 33.12485007 3.921875 39.66015625 C-2.99511091 46.11246941 -9.46741398 47.03927263 -18.765625 46.86328125 C-25.53693059 46.25828487 -29.37689293 43.66872916 -33.98828125 38.80859375 C-39.09640838 32.47591559 -40.85269001 26.50559886 -40.58203125 18.36328125 C-39.4650229 10.65162748 -35.36072784 4.76312267 -29.3515625 -0.03515625 C-20.11958468 -6.00196418 -9.19773628 -6.09329387 0 0 Z " fill="#448EFE" transform="translate(151.17578125,217.44140625)"/>
<path d="M0 0 C5.9981944 2.72894951 9.67697941 6.52381077 12.99609375 12.1640625 C13.36734375 12.74800781 13.73859375 13.33195313 14.12109375 13.93359375 C16.5755188 20.19018618 16.08515109 28.91759498 13.96875 35.2265625 C10.23770499 42.0065224 4.79764472 45.76328702 -2.00390625 49.1640625 C-10.71990508 49.96845959 -18.52220054 50.34345356 -25.9453125 45.0859375 C-30.97102946 40.39399681 -34.64913536 34.86894838 -35.3125 27.94140625 C-35.60118847 19.34198907 -35.08432953 12.77482696 -29.00390625 6.1640625 C-20.27958209 -0.96737835 -11.03900274 -3.07197215 0 0 Z " fill="#448EFE" transform="translate(266.00390625,214.8359375)"/>
<path d="M0 0 C1.05583786 -0.0071553 2.11167572 -0.01431061 3.19950867 -0.02168274 C6.68748317 -0.03858293 10.17417486 -0.01915799 13.66210938 0.00219727 C16.08679307 0.0013687 18.51147672 -0.00109022 20.93615723 -0.00511169 C26.01701776 -0.00797062 31.09743769 0.00674165 36.17822266 0.03417969 C42.6919844 0.06826185 49.20495818 0.06224472 55.71875763 0.04351711 C60.7253476 0.03295021 65.73175412 0.0418823 70.73832703 0.05690193 C73.14010575 0.06208642 75.5419036 0.06159873 77.94367981 0.05535698 C81.30011207 0.04990879 84.65541513 0.07026902 88.01171875 0.09765625 C89.00511765 0.09113037 89.99851654 0.08460449 91.02201843 0.07788086 C95.2983561 0.13723366 97.8546649 0.25722721 101.61877441 2.41835022 C103.86400546 5.05105754 104.13818147 7.10784098 104.26757812 10.53344727 C103.02052789 13.96763177 100.61417239 15.90643546 97.50585938 17.63110352 C94.0277152 18.350444 90.6237187 18.30485236 87.08178711 18.26220703 C86.04531036 18.26936234 85.00883362 18.27651764 83.94094849 18.28388977 C80.5233317 18.30076463 77.10702871 18.28138129 73.68945312 18.26000977 C71.31103914 18.2608385 68.93262521 18.26329807 66.55421448 18.26731873 C61.57348356 18.27017584 56.59320256 18.25548204 51.61254883 18.22802734 C45.22772627 18.19392691 38.84370724 18.19997017 32.45884609 18.21868992 C27.5491923 18.22925652 22.63972558 18.22032534 17.73008919 18.2053051 C15.37575905 18.20012163 13.0214094 18.20060707 10.66708183 18.20685005 C7.37780584 18.21229862 4.08968186 18.19193765 0.80053711 18.16455078 C-0.65915245 18.1743396 -0.65915245 18.1743396 -2.14833069 18.18432617 C-6.45578914 18.12332557 -8.84613763 18.03248083 -12.57505798 15.72276306 C-14.85985658 13.23249991 -15.42188316 12.17303449 -15.86914062 8.81860352 C-15.49414062 5.63110352 -15.49414062 5.63110352 -13.62658691 2.97132874 C-9.13420531 -0.38489313 -5.47258471 -0.06441174 0 0 Z " fill="#448EFE" transform="translate(365.494140625,42.368896484375)"/>
<path d="M0 0 C12.46029931 2.49205986 23.173714 8.0543429 33 16 C33.69480469 16.51949219 34.38960938 17.03898437 35.10546875 17.57421875 C50.40607997 29.69865519 58.32283699 49.17384913 61 68 C61.57183012 74.61829147 61.57953469 81.24369201 61.52148438 87.88208008 C61.49968748 90.85512727 61.52159578 93.82584549 61.546875 96.79882812 C61.54423711 98.70573445 61.53912334 100.61263935 61.53125 102.51953125 C61.53934692 103.39970413 61.54744385 104.27987701 61.55578613 105.1867218 C61.49316145 109.27160694 61.32148829 111.47222339 59.15429688 115.0300293 C55.56758558 118.30985403 52.47810987 118.11266785 47.8125 118.0625 C46.72582031 118.05347656 45.63914062 118.04445313 44.51953125 118.03515625 C43.68808594 118.02355469 42.85664063 118.01195312 42 118 C42.24121582 117.0726001 42.24121582 117.0726001 42.48730469 116.12646484 C43.20677213 111.73908385 43.18291024 107.4160006 43.203125 102.9765625 C43.21167511 101.50901016 43.21167511 101.50901016 43.22039795 100.0118103 C43.2298336 97.93903681 43.23637622 95.86624841 43.24023438 93.79345703 C43.2498594 90.67061906 43.28086289 87.54846266 43.3125 84.42578125 C43.45876301 57.02958345 36.39446221 34.01435554 17.125 13.8125 C13.46444891 10.23168368 9.46479669 7.36213407 5.19921875 4.54296875 C3.22995047 3.16133293 1.63137313 1.75808172 0 0 Z " fill="#C7D7FC" transform="translate(238,377)"/>
<path d="M0 0 C-3.25980545 3.36552887 -6.60526075 6.3279363 -10.3125 9.1875 C-27.46268675 23.1651321 -36.22399345 43.45806907 -39 65 C-39.23566891 69.04125494 -39.23580208 73.06239185 -39.1953125 77.109375 C-39.19106766 78.74860931 -39.19106766 78.74860931 -39.18673706 80.42095947 C-39.1756656 83.864091 -39.15058633 87.30694894 -39.125 90.75 C-39.11495332 93.10416287 -39.10583045 95.45832988 -39.09765625 97.8125 C-39.0757692 103.54175783 -39.04242454 109.27085936 -39 115 C-41.27024968 115.08097324 -43.54132075 115.13917704 -45.8125 115.1875 C-47.70935547 115.23970703 -47.70935547 115.23970703 -49.64453125 115.29296875 C-53 115 -53 115 -54.88671875 113.61328125 C-56.77211463 110.88111108 -57.13115976 109.17388988 -57.16113281 105.89599609 C-57.17074036 105.04685638 -57.1803479 104.19771667 -57.19024658 103.32284546 C-57.19449646 102.39904083 -57.19874634 101.47523621 -57.203125 100.5234375 C-57.20882507 99.56539215 -57.21452515 98.6073468 -57.22039795 97.62026978 C-57.2298653 95.58084215 -57.23638878 93.5413991 -57.24023438 91.50195312 C-57.24980978 88.43590792 -57.28076002 85.37057145 -57.3125 82.3046875 C-57.39118529 68.1370792 -57.38625903 53.42026625 -50.3125 40.6875 C-49.96509766 40.03072266 -49.61769531 39.37394531 -49.25976562 38.69726562 C-40.16739575 21.93781629 -21.06467003 -0.56931541 0 0 Z " fill="#FDFEFE" transform="translate(151,379)"/>
<path d="M0 0 C1.55460937 0.52400391 1.55460937 0.52400391 3.140625 1.05859375 C4.51038977 1.51830932 5.88018293 1.9779403 7.25 2.4375 C8.27287109 2.78264648 8.27287109 2.78264648 9.31640625 3.13476562 C12.5243033 4.20925541 15.71124636 5.20955632 19 6 C19.01401855 7.35363647 19.01401855 7.35363647 19.02832031 8.73461914 C19.0725584 12.11037578 19.13426864 15.48490286 19.20751953 18.86010742 C19.23559586 20.3157196 19.25687632 21.77148046 19.27099609 23.22729492 C19.15208419 34.3497427 19.15208419 34.3497427 24 44 C24.99 44.66 25.98 45.32 27 46 C27.36576643 48.66890544 27.53379816 51.11558174 27.57861328 53.79516602 C27.60314575 54.60030136 27.62767822 55.40543671 27.6529541 56.23497009 C27.72757133 58.90788061 27.77708356 61.58031129 27.8203125 64.25390625 C27.84426905 65.62440785 27.84426905 65.62440785 27.86870956 67.02259636 C27.94894768 71.86337611 28.00704265 76.70392326 28.05029297 81.54516602 C28.10013183 86.53543389 28.23430876 91.51971249 28.3874073 96.5077219 C28.48868008 100.35210991 28.52304889 104.19509521 28.53997421 108.04069328 C28.56006265 109.87862621 28.60561337 111.71647183 28.67764664 113.55310249 C29.19519375 127.55371442 29.19519375 127.55371442 25.4837265 131.68970871 C21.35355106 135.01573383 15.43601332 139 10 139 C9.67 131.41 9.34 123.82 9 116 C8.01 116.495 8.01 116.495 7 117 C8.17811077 114.60843514 9.40018753 112.25059222 10.65625 109.8984375 C11.2646875 108.73570312 11.873125 107.57296875 12.5 106.375 C13.41265625 104.65410156 13.41265625 104.65410156 14.34375 102.8984375 C18.53904814 93.8039084 18.36516012 84.02245707 18.375 74.1875 C18.39949219 72.91068359 18.42398437 71.63386719 18.44921875 70.31835938 C18.48318539 59.19428552 16.38353929 49.07177823 10.5625 39.5 C10.00691406 38.5615625 9.45132812 37.623125 8.87890625 36.65625 C7.10964026 33.87060978 7.10964026 33.87060978 4.32421875 31.9765625 C0.5491875 27.14198466 1.25648352 21.83335907 1.25 15.875 C1.21687712 13.51817993 1.18056931 11.16140183 1.140625 8.8046875 C1.13579102 7.76296387 1.13095703 6.72124023 1.12597656 5.64794922 C1.11467105 2.89270025 1.11467105 2.89270025 0 0 Z " fill="#C8D8FC" transform="translate(297,164)"/>
<path d="M0 0 C19.07221369 -0.11708416 38.1443539 -0.20511055 57.21685314 -0.25906086 C66.07364646 -0.28478286 74.93021576 -0.31981769 83.78686523 -0.37719727 C91.51123584 -0.42721706 99.23544412 -0.4593346 106.9599722 -0.47044247 C111.04569029 -0.47693001 115.13094418 -0.4920501 119.21651268 -0.52865028 C123.07190799 -0.56290457 126.92665346 -0.57299464 130.78218651 -0.56553841 C132.18774971 -0.56689997 133.59333749 -0.57665629 134.99876785 -0.59602737 C146.95638018 -0.7525811 158.41115021 1.36911828 167.28515625 9.98046875 C175.88903718 20.11305745 177.34761571 29.41098807 177.3125 42.3125 C177.32861328 43.48490234 177.34472656 44.65730469 177.36132812 45.86523438 C177.36796013 57.74316074 175.03126304 67.00256998 167 76 C156.63829557 85.24903818 145.9266517 86.45256453 132.46240234 86.34057617 C131.02252215 86.3397283 129.58264067 86.34020817 128.14276123 86.34190369 C124.26319597 86.34275881 120.38391318 86.32521207 116.50441313 86.30418181 C112.43920572 86.28533381 108.3739907 86.28365821 104.30874634 86.28010559 C96.62375252 86.27080886 88.93888785 86.24622746 81.25395072 86.21605712 C72.49936919 86.18243895 63.74478125 86.16600852 54.99015117 86.15097082 C36.99336109 86.11967558 18.99669096 86.0669616 1 86 C1 85.67 1 85.34 1 85 C1.72960937 85.0031424 2.45921875 85.00628481 3.2109375 85.00952244 C20.98082254 85.0829584 38.75013938 85.10661154 56.52015686 85.07515812 C65.11376748 85.06114214 73.70676002 85.06384825 82.30029297 85.10620117 C89.79229568 85.14308251 97.28354461 85.14830261 104.77557945 85.11582941 C108.74127645 85.09973774 112.70556006 85.09927933 116.67114258 85.13676643 C120.40817531 85.17159202 124.1427694 85.16390728 127.87973213 85.12437057 C129.89644704 85.11388114 131.91324177 85.14778595 133.92967224 85.1832428 C140.68296415 85.10532676 140.68296415 85.10532676 146.54177856 82.10006523 C156.97232007 70.71380482 159.35906553 58.26699582 159.375 43.3125 C159.39949219 42.12205078 159.42398438 40.93160156 159.44921875 39.70507812 C159.48879153 27.57602063 156.86693791 16.47734637 149 7 C148.13765495 5.72102592 148.13765495 5.72102592 147.25788879 4.41621399 C142.83847269 0.09090894 135.97020939 1.30128922 130.21362305 1.34057617 C128.79417005 1.33212012 127.37472867 1.3214747 125.95530701 1.30880737 C122.10845638 1.28066975 118.26216352 1.28313087 114.415241 1.29110122 C110.39261387 1.29422679 106.37016423 1.2691905 102.34761047 1.24714661 C94.73331215 1.20969601 87.11919244 1.19755803 79.50481111 1.1945222 C70.83488289 1.18983246 62.16513371 1.1569119 53.49528444 1.12162435 C35.6635402 1.0496788 17.83187963 1.01317132 0 1 C0 0.67 0 0.34 0 0 Z " fill="#A0C1FC" transform="translate(122,196)"/>
<path d="M0 0 C-0.35323334 0.62620239 -0.70646667 1.25240479 -1.07040405 1.89758301 C-5.16539742 9.85727419 -5.73372155 16.61255431 -5.6640625 25.46875 C-5.66744218 26.83915637 -5.67230429 28.20955979 -5.67855835 29.57995605 C-5.68587594 32.43429462 -5.67539312 35.28784401 -5.65185547 38.14208984 C-5.62336843 41.7700154 -5.63980052 45.39609072 -5.66971779 49.02394867 C-5.68793177 51.84850584 -5.68196928 54.67263643 -5.66907883 57.49720764 C-5.66420123 59.47499823 -5.67917664 61.45280657 -5.69473267 63.43054199 C-5.58831169 71.70186588 -4.07250908 77.78036737 0 85 C-6.62522563 85.45017649 -11.50705317 85.44485677 -17.24609375 81.875 C-23.74168948 74.93093329 -23.60229898 67.39212789 -23.56640625 58.375 C-23.57260483 57.07353027 -23.57880341 55.77206055 -23.58518982 54.43115234 C-23.59554814 51.6876442 -23.59109882 48.94465622 -23.57641602 46.20117188 C-23.55922141 42.70405265 -23.58275212 39.20857561 -23.61790562 35.7116394 C-23.64527796 32.34933234 -23.63513766 28.98741301 -23.62890625 25.625 C-23.64216446 24.37895996 -23.65542267 23.13291992 -23.66908264 21.84912109 C-23.59258457 14.67840269 -22.94261065 9.43916688 -18 4 C-12.50854097 -0.75340006 -6.99021998 -0.37615534 0 0 Z " fill="#FDFDFE" transform="translate(40,205)"/>
<path d="M0 0 C3.63 0 7.26 0 11 0 C11 28.05 11 56.1 11 85 C7.37 85 3.74 85 0 85 C-2.5625 82.3125 -2.5625 82.3125 -4 79 C-4.35332901 78.23439255 -4.70665802 77.4687851 -5.07069397 76.67997742 C-6.14405144 73.58457753 -6.27407927 71.08193365 -6.30639648 67.80786133 C-6.32238388 66.57920853 -6.33837128 65.35055573 -6.35484314 64.08467102 C-6.3612225 62.75046202 -6.3666144 61.41624798 -6.37109375 60.08203125 C-6.38007208 58.70065724 -6.38919413 57.31928415 -6.39845276 55.93791199 C-6.41491649 53.04378913 -6.42263748 50.14978155 -6.42553711 47.25561523 C-6.43090424 43.5715358 -6.46852391 39.88856155 -6.51428127 36.20479298 C-6.54423388 33.35033865 -6.55126463 30.49614396 -6.55226326 27.64154625 C-6.55844341 25.63094226 -6.58782449 23.62045193 -6.61778259 21.61006165 C-6.57968339 13.80925868 -5.84818673 5.84818673 0 0 Z " fill="#A4C2F7" transform="translate(40,205)"/>
<path d="M0 0 C3.68277737 1.99069047 5.61034451 5.12079338 6.9118042 9.06732178 C7.42416828 11.85828168 7.45578988 14.52195612 7.47363281 17.36035156 C7.48324036 18.59553528 7.4928479 19.83071899 7.50274658 21.10333252 C7.50759578 22.44909479 7.51187431 23.79485922 7.515625 25.140625 C7.51845238 25.82202293 7.52127975 26.50342087 7.52419281 27.20546722 C7.53916287 30.8132516 7.54840535 34.42099624 7.55273438 38.02880859 C7.55820767 41.73858646 7.58221735 45.44799519 7.61070633 49.15765762 C7.62942005 52.02487211 7.63454298 54.89199934 7.63607025 57.75926971 C7.63907898 59.12589276 7.64704675 60.49251493 7.66025543 61.85907745 C7.80078082 77.51876658 7.80078082 77.51876658 3.06378174 83.94366455 C0.56146281 85.81022197 -1.29713418 85.54613056 -4.375 85.4375 C-5.36886719 85.41042969 -6.36273438 85.38335937 -7.38671875 85.35546875 C-8.14597656 85.32066406 -8.90523438 85.28585937 -9.6875 85.25 C-9.84982845 75.05354393 -9.97413866 64.85739616 -10.0501852 54.6599102 C-10.086688 49.92450129 -10.13618264 45.18997757 -10.21557617 40.45507812 C-10.29174401 35.88384456 -10.33351251 31.31346125 -10.3516407 26.741642 C-10.36455574 24.99924459 -10.38977739 23.25689274 -10.4276104 21.51485825 C-10.71156719 7.89591464 -10.71156719 7.89591464 -8.17703247 3.82232666 C-5.4672095 1.38996677 -3.63995296 0.33860028 0 0 Z " fill="#A1C0F7" transform="translate(350.6875,204.75)"/>
<path d="M0 0 C1.4629997 0.00612044 2.92601108 0.00986868 4.38902283 0.01135254 C7.44999043 0.02054186 10.50990064 0.04932312 13.57055664 0.09375 C17.49031953 0.15036484 21.40925186 0.17217962 25.3293848 0.1811142 C28.34834566 0.18943429 31.36713947 0.20907793 34.38601494 0.23286438 C35.83126944 0.24424297 37.27653977 0.25376917 38.72181892 0.26139832 C40.74180859 0.27517471 42.76167646 0.30424255 44.78149414 0.33398438 C45.93001358 0.34764038 47.07853302 0.36129639 48.26185608 0.37536621 C51.17146816 0.65212418 52.81335135 1.02912315 55.21484375 2.65625 C57.55653139 6.16878146 57.71108052 7.52094356 57.21484375 11.65625 C55.41490601 14.35615662 54.13107075 16.1981365 51.21484375 17.65625 C49.17890271 17.76828211 47.13928624 17.8155706 45.1003418 17.83325195 C43.17275276 17.85250481 43.17275276 17.85250481 41.20622253 17.87214661 C39.79633977 17.88031418 38.38645265 17.88775788 36.9765625 17.89453125 C36.26752085 17.89860678 35.55847919 17.9026823 34.82795143 17.90688133 C31.0745129 17.92774266 27.32111093 17.94204363 23.56762695 17.95141602 C19.69373159 17.96247617 15.82041134 17.99687044 11.94671917 18.03658772 C8.96552983 18.06275477 5.98447744 18.07110791 3.00318336 18.07469749 C1.57544893 18.0795639 0.14772064 18.09117961 -1.2799015 18.10973549 C-3.28061683 18.13412217 -5.28161187 18.13074259 -7.2824707 18.1262207 C-8.42005325 18.13208694 -9.5576358 18.13795319 -10.72969055 18.14399719 C-14.48571331 17.54441934 -16.12708321 16.33602802 -18.78515625 13.65625 C-20.20849778 9.38622541 -20.21169109 7.51418534 -18.20141602 3.47070312 C-13.71306107 -1.54723358 -6.17292623 -0.11241783 0 0 Z " fill="#428DFE" transform="translate(326.78515625,110.34375)"/>
<path d="M0 0 C11.22 0 22.44 0 34 0 C34.061875 3.34125 34.12375 6.6825 34.1875 10.125 C34.22846802 11.68758545 34.22846802 11.68758545 34.27026367 13.28173828 C34.32516797 19.42039333 33.84093139 23.95666128 29.46484375 28.64453125 C23.22147277 33.41887377 18.80633976 33.70594685 11 33 C5.50120848 30.60052734 2.37144756 26.41095533 0 21 C-0.56922415 17.29676365 -0.4785975 13.73469501 -0.3125 10 C-0.209375 6.7 -0.10625 3.4 0 0 Z " fill="#C4D7FB" transform="translate(179,376)"/>
<path d="M0 0 C5.29198866 0.12935972 9.71823669 0.43614419 13.73046875 4.3046875 C16.94093239 8.59189125 18.33633408 13.83358392 19.88671875 18.89453125 C24.75370694 34.56335821 34.18399003 49.17267398 49 57 C42.94393552 58.98198474 37.36972263 56.19540011 31.92578125 53.44921875 C17.60588476 45.34599 7.92001902 34.57114248 2 19 C1.566875 17.865625 1.13375 16.73125 0.6875 15.5625 C-0.31376911 10.37410554 -0.1556621 5.26656764 0 0 Z " fill="#FCFDFE" transform="translate(69,299)"/>
<path d="M0 0 C2.10442135 0.6554755 4.20477578 1.32715514 6.28125 2.06640625 C9.00654234 3.04757069 9.00654234 3.04757069 11.90625 3.71484375 C15.24580451 4.76069886 17.35998445 5.67696 20 8 C21.56263384 12.18626054 22.35419451 16.2492213 23.1328125 20.6328125 C25.64782075 34.55884142 35.42975409 44.37122783 46 53 C46.66 53.66 47.32 54.32 48 55 C34.43926984 53.26144485 23.28729965 46.94738871 14 37 C7.89132527 28.83981912 3.82832096 20.80849015 2.9375 10.625 C2.70588282 8.05198539 2.40226387 5.55661037 2 3 C1.34 2.67 0.68 2.34 0 2 C0 1.34 0 0.68 0 0 Z " fill="#C8D8FC" transform="translate(245,107)"/>
<path d="M0 0 C0.66 0 1.32 0 2 0 C-2.21176108 15.29534287 -12.18181036 28.13396684 -26 36 C-39.08218976 42.45521617 -39.08218976 42.45521617 -45 42 C-44.360625 41.505 -43.72125 41.01 -43.0625 40.5 C-42.051875 39.675 -41.04125 38.85 -40 38 C-39.33355469 37.47535156 -38.66710937 36.95070313 -37.98046875 36.41015625 C-31.84520259 31.32787797 -22.75937399 22.74499924 -21.66796875 14.48803711 C-21 12 -21 12 -19.06640625 10.43847656 C-18.24011719 10.01018555 -17.41382813 9.58189453 -16.5625 9.140625 C-15.66789062 8.66496094 -14.77328125 8.18929688 -13.8515625 7.69921875 C-12.91054688 7.22097656 -11.96953125 6.74273437 -11 6.25 C-9.14535759 5.27694789 -7.29116604 4.30303581 -5.4375 3.328125 C-4.61121094 2.9043457 -3.78492188 2.48056641 -2.93359375 2.04394531 C-1.05156269 1.14698969 -1.05156269 1.14698969 0 0 Z " fill="#C7D7FC" transform="translate(320,315)"/>
<path d="M0 0 C0.69867188 -0.01933594 1.39734375 -0.03867187 2.1171875 -0.05859375 C6.06043383 -0.02139331 7.85217208 0.50775045 10.96484375 2.9765625 C13 5.625 13 5.625 13.5625 8.625 C12.87206143 12.30733904 11.63186072 13.99313928 9 16.625 C5.70907406 17.72197531 3.08887841 17.8621983 -0.375 17.9375 C-1.49648438 17.97488281 -2.61796875 18.01226562 -3.7734375 18.05078125 C-7.65385586 17.53871636 -9.23562425 16.33408823 -12 13.625 C-13.44430855 10.73638291 -13.37688506 8.82852299 -13 5.625 C-9.23399696 0.67394196 -5.97458933 -0.16534841 0 0 Z " fill="#4790FE" transform="translate(320,42.375)"/>
<path d="M0 0 C2.9375 1.5 2.9375 1.5 5 4 C5.65466318 6.80241781 5.61113838 9.19222271 5 12 C2.86398066 15.33219018 1.3672811 15.89315459 -2.4375 17 C-6 17 -6 17 -8.875 15.1875 C-11.58311914 12.3997303 -11.94093842 11.53155419 -12.375 7.625 C-12 4 -12 4 -9.9375 1.5625 C-6.25024289 -0.39880697 -4.12649986 -0.58949998 0 0 Z " fill="#4991FF" transform="translate(37,156)"/>
<path d="M0 0 C2.12890625 0.484375 2.12890625 0.484375 4.69140625 2.609375 C6.39414493 6.01485236 6.8322914 7.73298752 6.12890625 11.484375 C3.52100797 15.11962715 2.05867045 16.31834568 -2.37109375 17.109375 C-6.80085795 16.31834568 -8.26319547 15.11962715 -10.87109375 11.484375 C-11.5744789 7.73298752 -11.13633243 6.01485236 -9.43359375 2.609375 C-6.1809083 -0.08797391 -4.13789326 -0.24541047 0 0 Z " fill="#E3EAFC" transform="translate(138.87109375,230.515625)"/>
<path d="M0 0 C2.5 1.5 2.5 1.5 4 4 C4.791013 8.02098277 4.62153384 10.96411027 2.5 14.5 C-1.03588973 16.62153384 -3.97901723 16.791013 -8 16 C-10.5 14.5 -10.5 14.5 -12 12 C-12.791013 7.97901723 -12.62153384 5.03588973 -10.5 1.5 C-6.96411027 -0.62153384 -4.02098277 -0.791013 0 0 Z " fill="#E5EBFC" transform="translate(260,231)"/>
<path d="M0 0 C-5.445 2.475 -5.445 2.475 -11 5 C-11.33 4.01 -11.66 3.02 -12 2 C-10.75579353 1.4654744 -9.50429064 0.94791389 -8.25 0.4375 C-7.55390625 0.14746094 -6.8578125 -0.14257812 -6.140625 -0.44140625 C-4 -1 -4 -1 0 0 Z " fill="#E0EBFD" transform="translate(138,76)"/>
</svg>
